<svg xmlns="http://www.w3.org/2000/svg" viewBox="0 0 52.284 52.978"><defs><clipPath id="a"><path d="M5 0h54.26v55H5Zm0 0"/></clipPath><clipPath id="b"><path d="M55 27h4.26v6H55Zm0 0"/></clipPath><clipPath id="c"><path d="M55 19h4.26v6H55Zm0 0"/></clipPath><clipPath id="d"><path d="M53 14h6.26v6H53Zm0 0"/></clipPath><clipPath id="e"><path d="M6 0h53.26v53H6Zm0 0"/></clipPath></defs><g transform="translate(-6.96 -.001)" clip-path="url(#a)"><path d="M34.07 52.22a38.3 38.3 0 0 1-5.44-.42v-3.17c-1.03-.15-2.56-.7-2.75-.75l-1.56 2.77a25.83 25.83 0 0 1-7.84-4.53l1.6-2.8c-.91-.74-1.65-1.71-1.93-1.94l-2.81 1.6a25.96 25.96 0 0 1-4.53-7.83l2.82-1.61a11.2 11.2 0 0 1-.74-2.81l-3.27-.02a26.39 26.39 0 0 1 .02-9.03h3.26c.26-1.4.67-2.42.78-2.76l-2.84-1.67a25.87 25.87 0 0 1 4.56-7.82l2.82 1.67c.79-.92 1.54-1.62 1.8-1.85l-1.59-2.86a25.87 25.87 0 0 1 7.78-4.53l1.65 2.81s1.47-.5 2.77-.75V.67a25.57 25.57 0 0 1 9.02.01v3.24c.99.22 1.9.45 2.73.74L42 1.86a25.74 25.74 0 0 1 7.78 4.54L48.2 9.18c.71.63 1.4 1.3 1.94 1.94l2.74-1.6a26.08 26.08 0 0 1 4.51 7.81l-2.73 1.6c.29.86.57 1.85.77 2.77h3.12a25.5 25.5 0 0 1 .02 9.05l-3.12-.02c-.37 1.98-.77 2.86-.77 2.86l2.71 1.56c-.14.39-.37.75-.53 1.14" stroke-miterlimit="2.61" fill="none" stroke="#004990" stroke-width=".56"/></g><path d="m21.67.669 1.12 1.47zm0 0" fill="#bcbec0"/><path d="m35.04 1.859.2 1.83m-4.55-3-1.21 1.47M21.67.669l1.12 1.47" stroke-miterlimit="2.61" fill="none" stroke="#004990" stroke-width=".56"/><path d="m42.82 6.399-1.79.65zm0 0" fill="#bcbec0"/><path d="m42.82 6.399-1.79.65" stroke-miterlimit="2.61" fill="none" stroke="#004990" stroke-width=".56"/><path d="m17.25 1.859-.2 1.85zm0 0" fill="#fff"/><path d="m17.25 1.859-.2 1.85" stroke-miterlimit="2.61" fill="none" stroke="#004990" stroke-width=".56"/><path d="m9.47 6.399 1.8.69zm0 0" fill="#fff"/><path d="m9.47 6.399 1.8.69" stroke-miterlimit="2.61" fill="none" stroke="#004990" stroke-width=".56"/><path d="m6.44 9.429.6 1.9zm0 0" fill="#fff"/><path d="m6.44 9.429.6 1.9" stroke-miterlimit="2.61" fill="none" stroke="#004990" stroke-width=".56"/><path d="m1.88 17.249 1.8-.16zm0 0" fill="#fff"/><path d="m1.88 17.249 1.8-.16" stroke-miterlimit="2.61" fill="none" stroke="#004990" stroke-width=".56"/><path d="m.68 21.679 1.54 1.2zm0 0" fill="#fff"/><path d="m.68 21.679 1.54 1.2" stroke-miterlimit="2.61" fill="none" stroke="#004990" stroke-width=".56"/><path d="m.67 30.709 1.55-1.12zm0 0" fill="#fff"/><path d="m.67 30.709 1.55-1.12" stroke-miterlimit="2.61" fill="none" stroke="#004990" stroke-width=".56"/><path d="m1.84 35.149 1.9.18zm0 0" fill="#fff"/><path d="m1.84 35.149 1.9.18" stroke-miterlimit="2.61" fill="none" stroke="#004990" stroke-width=".56"/><path d="m6.38 42.969.7-1.83zm0 0" fill="#fff"/><path d="m6.38 42.969.7-1.83" stroke-miterlimit="2.61" fill="none" stroke="#004990" stroke-width=".56"/><path d="m9.56 46.069 1.72-.72zm0 0" fill="#fff"/><path d="m9.56 46.069 1.72-.72" stroke-miterlimit="2.61" fill="none" stroke="#004990" stroke-width=".56"/><path d="m17.36 50.649-.31-1.93zm0 0" fill="#fff"/><path d="m17.36 50.649-.31-1.93" stroke-miterlimit="2.61" fill="none" stroke="#004990" stroke-width=".56"/><path d="m21.67 51.799 1.12-1.52zm0 0" fill="#fff"/><path d="m21.67 51.799 1.12-1.52" stroke-miterlimit="2.61" fill="none" stroke="#004990" stroke-width=".56"/><path d="m51.61 30.749-1.4-1.16zm0 0" fill="#fff"/><g transform="translate(-6.96 -.001)" clip-path="url(#b)"><path d="m58.57 30.75-1.4-1.16" stroke-miterlimit="2.61" fill="none" stroke="#004990" stroke-width=".56"/></g><path d="m51.59 21.699-1.4 1.18zm0 0" fill="#fff"/><g transform="translate(-6.96 -.001)" clip-path="url(#c)"><path d="m58.55 21.7-1.4 1.18" stroke-miterlimit="2.61" fill="none" stroke="#004990" stroke-width=".56"/></g><path d="m45.92 9.519-.65 1.76zm0 0" fill="#fff"/><path d="m45.92 9.519-.65 1.76" stroke-miterlimit="2.61" fill="none" stroke="#004990" stroke-width=".56"/><path d="m50.44 17.329-1.8-.26zm0 0" fill="#fff"/><g transform="translate(-6.96 -.001)" clip-path="url(#d)"><path d="m57.4 17.33-1.8-.26" stroke-miterlimit="2.61" fill="none" stroke="#004990" stroke-width=".56"/></g><path d="M45.44 33.539c.48-1.1.89-2.63 1.05-3.95h3.7c.08-.8.22-2.22.22-3.36 0-1.34.06-.2-.23-3.37h-3.7c-.14-1.07-.47-2.6-1.04-3.94 0 0 3.2-1.84 3.2-1.86a24.25 24.25 0 0 0-3.37-5.78s-3.18 1.85-3.2 1.83a22.78 22.78 0 0 0-2.87-2.87l1.84-3.22a23.84 23.84 0 0 0-5.79-3.33c-.03-.01-1.8 3.22-1.85 3.2a18.92 18.92 0 0 0-3.92-1.03c-.01 0 .02-3.7 0-3.7a24.21 24.21 0 0 0-6.66.02c0-.01-.01 3.7-.03 3.7-1.3.1-3.89 1.05-3.89 1.07l-1.85-3.22c-2.1.9-3.86 1.85-5.76 3.37-.01 0 1.84 3.2 1.83 3.22-.46.49-2.2 1.95-2.83 2.86-.02.01-3.26-1.84-3.26-1.84a25.66 25.66 0 0 0-3.32 5.78c-.01.04 3.26 1.85 3.26 1.87-.4.87-1.02 2.94-1.05 3.89 0 .03-3.7-.02-3.7 0a35.7 35.7 0 0 0-.22 3.35c0 1.13.04 2.32.22 3.34 0 .02 3.7 0 3.7.01.2 1.67.52 2.66 1.02 3.9 0 .01-3.22 1.78-3.2 1.81.43 1.3 1.96 4.16 3.35 5.85.02.02 3.18-1.85 3.2-1.84.56.65 1.78 1.97 2.8 2.86.03.02-1.82 3.2-1.82 3.2a23.56 23.56 0 0 0 5.78 3.37c.01 0 1.83-3.24 1.85-3.23 1.31.54 2.52.88 3.89 1.08.02 0 0 3.7.02 3.7 1.11.16 4.3.32 4.3.32l-.01-8.37v-.36h-.96c-8.6 0-15.58-7-15.58-15.63a15.6 15.6 0 0 1 15.58-15.64c8.6 0 15.58 7 15.58 15.64 0 3.3-1.07 5.86-2.77 8.77 1.14.05 2.27 1.24 2.27 1.24s2.25-2.48 6.53-1.37l-2.32-1.34" fill="#80a4c7"/><g transform="translate(-6.96 -.001)" clip-path="url(#e)"><path d="m25.86 6.95-1.85-3.22c-2.1.9-3.86 1.85-5.76 3.37-.01 0 1.84 3.2 1.83 3.22-.46.49-2.2 1.95-2.83 2.86-.02.01-3.26-1.84-3.26-1.84a25.66 25.66 0 0 0-3.32 5.78c-.01.04 3.26 1.85 3.26 1.87-.4.87-1.02 2.94-1.05 3.89 0 .03-3.7-.02-3.7 0a35.7 35.7 0 0 0-.22 3.35c0 1.13.04 2.32.22 3.34 0 .02 3.7 0 3.7.01.2 1.67.52 2.66 1.02 3.9 0 .01-3.22 1.78-3.2 1.81.43 1.3 1.96 4.16 3.35 5.85.02.02 3.18-1.85 3.2-1.84.56.65 1.78 1.97 2.8 2.86.03.02-1.82 3.2-1.82 3.2a23.56 23.56 0 0 0 5.78 3.37c.01 0 1.83-3.24 1.85-3.23 1.31.54 2.52.88 3.89 1.08.02 0 0 3.7.02 3.7 1.11.16 4.3.32 4.3.32l-.01-8.37v-.36h-.96c-8.6 0-15.58-7-15.58-15.63A15.6 15.6 0 0 1 33.1 10.6c8.6 0 15.58 7 15.58 15.64 0 3.3-1.07 5.86-2.77 8.77 1.14.05 2.27 1.24 2.27 1.24s2.25-2.48 6.53-1.37l-2.32-1.34c.5-1.1.9-2.63 1.06-3.95h3.7c.08-.8.22-2.22.22-3.36 0-1.34.06-.2-.23-3.37h-3.7c-.14-1.07-.47-2.6-1.04-3.94 0 0 3.2-1.84 3.2-1.86a24.25 24.25 0 0 0-3.37-5.78s-3.18 1.85-3.2 1.83a22.78 22.78 0 0 0-2.87-2.87L48 7.02a23.84 23.84 0 0 0-5.79-3.33c-.03-.01-1.8 3.22-1.85 3.2a18.92 18.92 0 0 0-3.92-1.03c-.01 0 .02-3.7 0-3.7a24.21 24.21 0 0 0-6.66.02c0-.01-.01 3.7-.03 3.7a15 15 0 0 0-3.89 1.07zm0 0" stroke-miterlimit="2.61" fill="none" stroke="#004990" stroke-width=".56"/></g><path d="M44.97 52.979v-10.59c0-2.29-.23-2.42-1.23-2.42-.36 0-1.25.3-1.85.66v12.35H36.5v-10.62c0-2.26-.07-2.49-1.16-2.49-.53 0-1.39.3-1.85.67v12.44H27.9v-10.89l-.02-6.25h4.78c.17.6.3.64.33 1.28a6.33 6.33 0 0 1 4.14-1.7 4.6 4.6 0 0 1 3.83 1.86 6.92 6.92 0 0 1 4.9-1.86c2.38 0 4.63.8 4.63 5.08v12.48h-5.52m-23.78-24.37h.57v1.23h-3.29v-1.23h.6v-5.81h-.6v-1.23h2.72v7.04m3.8-7.17v1.74h-2.1v-1.74zm0 7.19h.56v1.21h-3.29v-1.21h.64v-3.66h-.64v-1.23h2.73v4.89m4.19-3.76c-.98 0-1 1.31-1 2 0 .68.08 1.8.98 1.8.99 0 1.1-1.28 1.1-2 0-.7-.18-1.8-1.08-1.8zm1.01-2.07h-.66v-1.23h2.76v7.04h.61v1.23h-2.56v-1.07c-.26.9-1.12 1.21-1.97 1.21-1.86 0-2.32-1.71-2.32-3.25 0-1.49.48-3.13 2.28-3.13.83 0 1.51.17 1.86.98v-1.78" fill="#004990"/></svg>